<?xml version='1.0' encoding='utf-8'?>
<svg xmlns="http://www.w3.org/2000/svg" id="emoji" version="1.1" viewBox="0 0 72 72">
  <g id="grid">
    <path d="M68,4V68H4V4H68m4-4H0V72H72V0Z" fill="#b3b3b3" />
    <path d="m12.92 10.96h46.15a1.923 1.923 0 0 1 1.923 1.923v46.15a1.923 1.923 0 0 1-1.923 1.923h-46.15a1.923 1.923 0 0 1-1.923-1.923v-46.15a1.923 1.923 0 0 1 1.923-1.923z" fill="none" stroke="#00a5ff" stroke-miterlimit="10" stroke-width=".1" />
    <rect fill="none" height="64" rx="2.254" stroke="#00a5ff" stroke-miterlimit="10" stroke-width=".1" width="40" x="16" y="4" />
    <rect fill="none" height="64" rx="2.254" stroke="#00a5ff" stroke-miterlimit="10" stroke-width=".1" transform="translate(72) rotate(90)" width="40" x="16" y="4" />
    <circle cx="36" cy="36" fill="none" r="29" stroke="#00a5ff" stroke-miterlimit="10" stroke-width=".1" />
  </g>
  <g id="color" style="clip-rule:evenodd;fill-rule:evenodd;stroke-miterlimit:10" transform="matrix(.25 0 0 .2688 -.4584 -.7176)">
    <rect height="136.4" style="fill:#97d2f3;stroke-width:0" width="200" x="45.83" y="68.2" />
  </g>
  <g id="line" style="clip-rule:evenodd;fill-rule:evenodd;stroke-miterlimit:10" transform="matrix(.223 0 0 .223 -1.082 .3072)">
    <rect height="136.4" style="clip-rule:evenodd;fill:none;stroke-linecap:round;stroke-linejoin:round;stroke-miterlimit:1.5;stroke-width:7.715;stroke:#000" transform="matrix(1.121 0 0 1.205 2.794 -4.594)" width="200" x="45.83" y="68.2" />
    <path d="m74.59 115.2h52.97c1.326 0 2.598 0.527 3.536 1.465s1.464 2.209 1.464 3.535v68.79h-57.97" style="clip-rule:evenodd;fill:none;stroke-linecap:round;stroke-linejoin:round;stroke-miterlimit:1.5;stroke-width:8.333;stroke:#000" transform="matrix(1.076 0 0 1.076 4.85 -1.377)" />
    <path d="m74.59 115.2h52.97c1.326 0 2.598 0.527 3.536 1.465s1.464 2.209 1.464 3.535v68.79h-57.97" style="clip-rule:evenodd;fill:none;stroke-linecap:round;stroke-linejoin:round;stroke-miterlimit:1.5;stroke-width:8.333;stroke:#000" transform="matrix(1.076 0 0 1.076 104.8 -1.377)" />
  </g>
</svg>
