<?xml version='1.0' encoding='utf-8'?>
<svg id="emoji" version="1.1" viewBox="0 0 72 72" xmlns="http://www.w3.org/2000/svg">
 <g id="grid">
  <path d="M68,4V68H4V4H68m4-4H0V72H72V0Z" fill="#b3b3b3"/>
  <path d="m12.92 10.96h46.15a1.923 1.923 0 0 1 1.923 1.923v46.15a1.923 1.923 0 0 1-1.923 1.923h-46.15a1.923 1.923 0 0 1-1.923-1.923v-46.15a1.923 1.923 0 0 1 1.923-1.923z" fill="none" stroke="#00a5ff" stroke-miterlimit="10" stroke-width=".1"/>
  <rect x="16" y="4" width="40" height="64" rx="2.254" fill="none" stroke="#00a5ff" stroke-miterlimit="10" stroke-width=".1"/>
  <rect transform="translate(72) rotate(90)" x="16" y="4" width="40" height="64" rx="2.254" fill="none" stroke="#00a5ff" stroke-miterlimit="10" stroke-width=".1"/>
  <circle cx="36" cy="36" r="29" fill="none" stroke="#00a5ff" stroke-miterlimit="10" stroke-width=".1"/>
 </g>
 <g id="color" transform="matrix(.2609 0 0 .2609 -91.17 -3.173)" style="clip-rule:evenodd;fill-rule:evenodd;stroke-miterlimit:10">
  <rect x="391.7" y="54.17" width="191.7" height="191.7" style="fill:#e5604d;stroke-width:0"/>
 </g>
 <g id="line" transform="matrix(.2901 0 0 .2901 -105 -7.199)" style="clip-rule:evenodd;fill-rule:evenodd;stroke-miterlimit:10">
  <rect transform="matrix(.8991 0 0 .8991 47.8 13.88)" x="391.7" y="54.17" width="191.7" height="191.7" style="clip-rule:evenodd;fill:none;stroke-linecap:round;stroke-linejoin:round;stroke-miterlimit:1.5;stroke-width:7.667;stroke:#000"/>
  <path transform="matrix(1.018 0 0 1.018 -8.393 -3.017)" d="m434 128.8 105.6-0.143" style="clip-rule:evenodd;fill:none;stroke-linecap:round;stroke-linejoin:round;stroke-miterlimit:1.5;stroke-width:6.772;stroke:#fff"/>
  <path transform="matrix(1.018 0 0 1.018 -8.393 -3.017)" d="m460.4 101.8v59.25" style="clip-rule:evenodd;fill:none;stroke-linecap:round;stroke-linejoin:round;stroke-miterlimit:1.5;stroke-width:6.772;stroke:#fff"/>
  <path transform="matrix(1.018 0 0 1.018 44.54 -3.017)" d="m460.4 101.7 0.083 31.86s4.989 59.12-38.6 69.32" style="clip-rule:evenodd;fill:none;stroke-linecap:round;stroke-linejoin:round;stroke-miterlimit:1.5;stroke-width:6.772;stroke:#fff"/>
 </g>
</svg>
