<?xml version='1.0' encoding='utf-8'?>
<svg xmlns="http://www.w3.org/2000/svg" id="emoji" version="1.1" viewBox="0 0 72 72">
  <g id="grid">
    <path d="M68,4V68H4V4H68m4-4H0V72H72V0Z" fill="#b3b3b3" />
    <path d="m12.92 10.96h46.15a1.923 1.923 0 0 1 1.923 1.923v46.15a1.923 1.923 0 0 1-1.923 1.923h-46.15a1.923 1.923 0 0 1-1.923-1.923v-46.15a1.923 1.923 0 0 1 1.923-1.923z" fill="none" stroke="#00a5ff" stroke-miterlimit="10" stroke-width=".1" />
    <rect fill="none" height="64" rx="2.254" stroke="#00a5ff" stroke-miterlimit="10" stroke-width=".1" width="40" x="16" y="4" />
    <rect fill="none" height="64" rx="2.254" stroke="#00a5ff" stroke-miterlimit="10" stroke-width=".1" transform="translate(72) rotate(90)" width="40" x="16" y="4" />
    <circle cx="36" cy="36" fill="none" r="29" stroke="#00a5ff" stroke-miterlimit="10" stroke-width=".1" />
  </g>
  <g id="color" style="clip-rule:evenodd;fill-rule:evenodd;stroke-miterlimit:10" transform="matrix(.2609 0 0 .2609 -91.17 -3.173)">
    <rect height="191.7" style="fill:#97d2f3;stroke-width:0" width="191.7" x="391.7" y="54.17" />
  </g>
  <g id="line" style="clip-rule:evenodd;fill-rule:evenodd;stroke-miterlimit:10" transform="matrix(1.087 0 0 1.087 -3.129 -3.173)">
    <rect height="191.7" style="clip-rule:evenodd;fill:none;stroke-linecap:round;stroke-linejoin:round;stroke-miterlimit:1.5;stroke-width:7.667;stroke:#000" transform="matrix(.24 0 0 .24 -81 0)" width="191.7" x="391.7" y="54.17" />
    <path d="m535.7 527.7s8.831 8.689 19.79 27.23" style="clip-rule:evenodd;fill:none;stroke-linecap:round;stroke-linejoin:round;stroke-miterlimit:1.5;stroke-width:7.369;stroke:#000" transform="matrix(.2497 0 0 .2497 -85.68 -85.44)" />
    <path d="m501.7 529.8s7.768 16.6 9.567 23.63" style="clip-rule:evenodd;fill:none;stroke-linecap:round;stroke-linejoin:round;stroke-miterlimit:1.5;stroke-width:7.37px;stroke:#000" transform="matrix(.2497 0 0 .2497 -85.68 -85.44)" />
    <path d="m467.7 530.9s3.026 12.02 3.189 22.57" style="clip-rule:evenodd;fill:none;stroke-linecap:round;stroke-linejoin:round;stroke-miterlimit:1.5;stroke-width:7.37px;stroke:#000" transform="matrix(.2497 0 0 .2497 -85.68 -85.44)" />
    <path d="m419 555.9c13.82-10.55 19.87-27.23 19.87-27.23" style="clip-rule:evenodd;fill:none;stroke-linecap:round;stroke-linejoin:round;stroke-miterlimit:1.5;stroke-width:7.37px;stroke:#000" transform="matrix(.2497 0 0 .2497 -85.68 -85.44)" />
    <path d="m441.7 437.8v74.65" style="clip-rule:evenodd;fill:none;stroke-linecap:square;stroke-linejoin:round;stroke-miterlimit:1.5;stroke-width:7.37px;stroke:#000" transform="matrix(.2497 0 0 .2497 -85.68 -85.44)" />
    <path d="m441.7 436.8v75.65" style="clip-rule:evenodd;fill:none;stroke-linecap:square;stroke-linejoin:round;stroke-miterlimit:1.5;stroke-width:7.37px;stroke:#000" transform="matrix(.2497 0 0 .2497 -78.44 -85.44)" />
    <path d="m441.7 436.8v75.65" style="clip-rule:evenodd;fill:none;stroke-linecap:square;stroke-linejoin:round;stroke-miterlimit:1.5;stroke-width:7.37px;stroke:#000" transform="matrix(.2497 0 0 .2497 -70.94 -85.44)" />
    <path d="m441.7 436.8v75.65" style="clip-rule:evenodd;fill:none;stroke-linecap:square;stroke-linejoin:round;stroke-miterlimit:1.5;stroke-width:7.37px;stroke:#000" transform="matrix(.2497 0 0 .2497 -63.45 -85.44)" />
    <path d="m421.7 513.3 130.5 0.132" style="clip-rule:evenodd;fill:none;stroke-linecap:round;stroke-linejoin:round;stroke-miterlimit:1.5;stroke-width:7.37px;stroke:#000" transform="matrix(.2497 0 0 .2497 -85.68 -85.44)" />
    <path d="m419.2 474.6 136.3 0.021" style="clip-rule:evenodd;fill:none;stroke-linecap:round;stroke-linejoin:round;stroke-miterlimit:1.5;stroke-width:7.37px;stroke:#000" transform="matrix(.2497 0 0 .2497 -85.68 -85.44)" />
    <path d="m548.7 436.2-106.6 0.058" style="clip-rule:evenodd;fill:none;stroke-linecap:round;stroke-linejoin:round;stroke-miterlimit:1.5;stroke-width:7.37px;stroke:#000" transform="matrix(.2497 0 0 .2497 -85.68 -85.44)" />
    <path d="m419.5 457.9c25.72-22.83 31.99-41.11 31.99-41.11" style="clip-rule:evenodd;fill:none;stroke-linecap:round;stroke-linejoin:round;stroke-miterlimit:1.5;stroke-width:7.37px;stroke:#000" transform="matrix(.2497 0 0 .2497 -85.68 -85.44)" />
  </g>
</svg>
