<?xml version='1.0' encoding='utf-8'?>
<svg xmlns="http://www.w3.org/2000/svg" id="emoji" version="1.1" viewBox="0 0 72 72">
  <g id="grid">
    <path d="m68 4v64h-64v-64h64m4-4h-72v72h72z" fill="#b3b3b3" />
    <path d="m12.92 10.96h46.15a1.923 1.923 0 0 1 1.923 1.923v46.15a1.923 1.923 0 0 1-1.923 1.923h-46.15a1.923 1.923 0 0 1-1.923-1.923v-46.15a1.923 1.923 0 0 1 1.923-1.923z" fill="none" stroke="#00a5ff" stroke-miterlimit="10" stroke-width=".1" />
    <rect fill="none" height="64" rx="2.254" stroke="#00a5ff" stroke-miterlimit="10" stroke-width=".1" width="40" x="16" y="4" />
    <rect fill="none" height="64" rx="2.254" stroke="#00a5ff" stroke-miterlimit="10" stroke-width=".1" transform="rotate(90,36,36)" width="40" x="16" y="4" />
    <circle cx="36" cy="36" fill="none" r="29" stroke="#00a5ff" stroke-miterlimit="10" stroke-width=".1" />
  </g>
  <g id="color" style="clip-rule:evenodd;fill-rule:evenodd;stroke-miterlimit:10" transform="matrix(.2609 0 0 .2609 -91.17 -3.172)">
    <rect height="191.7" style="fill:#e5604d;stroke-width:0" width="191.7" x="391.7" y="54.17" />
  </g>
  <g id="line" style="clip-rule:evenodd;fill-rule:evenodd;stroke-miterlimit:10" transform="matrix(.2593 0 0 .2593 -440 -90.09)">
    <rect height="191.7" style="clip-rule:evenodd;fill:none;stroke-linecap:round;stroke-linejoin:round;stroke-miterlimit:1.5;stroke-width:7.734;stroke:#000" transform="matrix(.9888 0 0 1.006 1355 335.2)" width="191.7" x="391.7" y="54.17" />
    <path d="m1804 467.6 68.32 0.267" style="clip-rule:evenodd;fill:none;stroke-linecap:round;stroke-linejoin:round;stroke-miterlimit:1.5;stroke-width:8.008;stroke:#fff" transform="matrix(.9632 0 0 .9632 66.43 19.19)" />
    <path d="m1886 501.5v43.6c0 2.292-1.86 4.153-4.152 4.153h-87.63c-2.292 0-4.153-1.861-4.153-4.153v-43.6c0-2.292 1.861-4.152 4.153-4.152h87.63c2.292 0 4.152 1.86 4.152 4.152z" style="clip-rule:evenodd;fill-opacity:0;stroke-linecap:round;stroke-linejoin:round;stroke-miterlimit:1.5;stroke-width:8.008;stroke:#fff" transform="matrix(.9632 0 0 .9632 66.43 15.58)" />
    <path d="m1770 469.5c30.69-12.94 67.1-48.97 67.1-48.97s35.64 33.76 69.27 50.57" style="clip-rule:evenodd;fill:none;stroke-linecap:round;stroke-linejoin:round;stroke-miterlimit:1.5;stroke-width:8.008;stroke:#fff" transform="matrix(.9632 0 0 .9632 66.43 19.19)" />
  </g>
</svg>
