<?xml version='1.0' encoding='utf-8'?>
<svg xmlns="http://www.w3.org/2000/svg" id="emoji" version="1.1" viewBox="0 0 72 72">
  <g id="grid">
    <path d="M68,4V68H4V4H68m4-4H0V72H72V0Z" fill="#b3b3b3" />
    <path d="m12.92 10.96h46.15a1.923 1.923 0 0 1 1.923 1.923v46.15a1.923 1.923 0 0 1-1.923 1.923h-46.15a1.923 1.923 0 0 1-1.923-1.923v-46.15a1.923 1.923 0 0 1 1.923-1.923z" fill="none" stroke="#00a5ff" stroke-miterlimit="10" stroke-width=".1" />
    <rect fill="none" height="64" rx="2.254" stroke="#00a5ff" stroke-miterlimit="10" stroke-width=".1" width="40" x="16" y="4" />
    <rect fill="none" height="64" rx="2.254" stroke="#00a5ff" stroke-miterlimit="10" stroke-width=".1" transform="translate(72) rotate(90)" width="40" x="16" y="4" />
    <circle cx="36" cy="36" fill="none" r="29" stroke="#00a5ff" stroke-miterlimit="10" stroke-width=".1" />
  </g>
  <g id="color" style="clip-rule:evenodd;fill-rule:evenodd;stroke-miterlimit:10" transform="matrix(.2609 0 0 .2609 -91.17 -3.172)">
    <rect height="191.7" style="fill:#fbea4b;stroke-width:0" width="191.7" x="391.7" y="54.17" />
  </g>
  <g id="line" style="clip-rule:evenodd;fill-rule:evenodd;stroke-miterlimit:10" transform="matrix(1.087 0 0 1.087 -3.13 -3.172)">
    <rect height="191.7" style="clip-rule:evenodd;fill:none;stroke-linecap:round;stroke-linejoin:round;stroke-miterlimit:1.5;stroke-width:7.666;stroke:#000" transform="matrix(.24 0 0 .24 -81 0)" width="191.7" x="391.7" y="54.17" />
    <path d="m157.8 514.5v25.33c0 1.842-1.563 3.338-3.489 3.338h-50.62c-1.925 0-3.488-1.496-3.488-3.338v-25.33c0-1.842 1.563-3.337 3.488-3.337h50.62c1.926 0 3.489 1.495 3.489 3.337z" style="clip-rule:evenodd;fill-opacity:0;stroke-linecap:round;stroke-linejoin:round;stroke-miterlimit:1.5;stroke-width:6.992;stroke:#000" transform="matrix(.2574 0 0 .269 -2.55 -94.15)" />
    <path d="m216 421.3s0.451 98.14 0.553 120.4c0.011 2.454-1.967 4.454-4.421 4.471-7.208 0.048-20.66 0.137-20.66 0.137" style="clip-rule:evenodd;fill:none;stroke-linecap:round;stroke-linejoin:round;stroke-miterlimit:1.5;stroke-width:7.316;stroke:#000" transform="matrix(.2515 0 0 .2515 -2.784 -85.42)" />
    <path d="m183.8 436-0.059 76.12" style="clip-rule:evenodd;fill:none;stroke-linecap:round;stroke-linejoin:round;stroke-miterlimit:1.5;stroke-width:7.316;stroke:#000" transform="matrix(.2515 0 0 .2515 -1.274 -85.42)" />
    <path d="m85.81 495.5h80.86" style="clip-rule:evenodd;fill:none;stroke-linecap:round;stroke-linejoin:round;stroke-miterlimit:1.5;stroke-width:7.316;stroke:#000" transform="matrix(.2515 0 0 .2515 -1.274 -85.42)" />
    <path d="m126.2 417.8v15.13" style="clip-rule:evenodd;fill:none;stroke-linecap:round;stroke-linejoin:round;stroke-miterlimit:1.5;stroke-width:7.316;stroke:#000" transform="matrix(.2515 0 0 .2515 -1.274 -85.42)" />
    <path d="m126.2 417.8v50.6" style="clip-rule:evenodd;fill:none;stroke-linecap:round;stroke-linejoin:round;stroke-miterlimit:1.5;stroke-width:7.405;stroke:#000" transform="matrix(.2515 0 0 .2455 -1.274 -76.12)" />
    <path d="m96.81 458.5h57.86" style="clip-rule:evenodd;fill:none;stroke-linecap:round;stroke-linejoin:round;stroke-miterlimit:1.5;stroke-width:7.316;stroke:#000" transform="matrix(.2515 0 0 .2515 -1.274 -81.15)" />
    <path d="m96.81 458.5h57.86" style="clip-rule:evenodd;fill:none;stroke-linecap:round;stroke-linejoin:round;stroke-miterlimit:1.5;stroke-width:7.316;stroke:#000" transform="matrix(.2515 0 0 .2515 -1.274 -85.93)" />
    <path d="m86.08 449.5v-12.11c0-2.457 1.992-4.449 4.449-4.45 13.9-6e-3 56.39-0.024 70.3-0.029 1.183-1e-3 2.318 0.47 3.153 1.307 0.836 0.838 1.303 1.974 1.299 3.157-0.015 5.013-0.038 12.45-0.038 12.45" style="clip-rule:evenodd;fill:none;stroke-linecap:round;stroke-linejoin:round;stroke-miterlimit:1.5;stroke-width:7.316;stroke:#000" transform="matrix(.2515 0 0 .2515 -1.274 -85.42)" />
  </g>
</svg>
