<svg id="emoji" version="1.1" viewBox="0 0 72 72" xmlns="http://www.w3.org/2000/svg">
 <g id="grid">
  <path d="M68,4V68H4V4H68m4-4H0V72H72V0Z" fill="#b3b3b3"/>
  <path d="m12.92 10.96h46.15a1.923 1.923 0 0 1 1.923 1.923v46.15a1.923 1.923 0 0 1-1.923 1.923h-46.15a1.923 1.923 0 0 1-1.923-1.923v-46.15a1.923 1.923 0 0 1 1.923-1.923z" fill="none" stroke="#00a5ff" stroke-miterlimit="10" stroke-width=".1"/>
  <rect x="16" y="4" width="40" height="64" rx="2.254" fill="none" stroke="#00a5ff" stroke-miterlimit="10" stroke-width=".1"/>
  <rect transform="translate(72) rotate(90)" x="16" y="4" width="40" height="64" rx="2.254" fill="none" stroke="#00a5ff" stroke-miterlimit="10" stroke-width=".1"/>
  <circle cx="36" cy="36" r="29" fill="none" stroke="#00a5ff" stroke-miterlimit="10" stroke-width=".1"/>
 </g>
 <g id="color" transform="matrix(.2609 0 0 .2609 -91.17 -3.172)">
  <rect transform="matrix(3.833 0 0 3.833 349.4 12.16)" x="12" y="12" width="48" height="47.83" fill="#fcea2b"/>
  <path transform="matrix(1.072 0 0 1.121 326.8 -392.3)" d="m157.8 514.5v25.33c0 1.842-1.563 3.338-3.489 3.338h-50.62c-1.925 0-3.488-1.496-3.488-3.338v-25.33c0-1.842 1.563-3.337 3.488-3.337h50.62c1.926 0 3.489 1.495 3.489 3.337z" clip-rule="evenodd" fill-opacity="0" stroke="#000" stroke-linecap="round" stroke-linejoin="round" stroke-miterlimit="1.5" stroke-width="8.741"/>
  <path transform="matrix(1.048 0 0 1.048 325.8 -355.9)" d="m216 421.3s0.451 98.14 0.553 120.4c0.011 2.454-1.967 4.454-4.421 4.471-7.208 0.048-20.66 0.137-20.66 0.137" clip-rule="evenodd" fill="none" stroke="#000" stroke-linecap="round" stroke-linejoin="round" stroke-miterlimit="1.5" stroke-width="9.143"/>
  <path transform="matrix(1.048 0 0 1.048 332.1 -355.9)" d="m183.8 436-0.059 76.12" clip-rule="evenodd" fill="none" stroke="#000" stroke-linecap="round" stroke-linejoin="round" stroke-miterlimit="1.5" stroke-width="9.143"/>
  <path transform="matrix(1.048 0 0 1.048 332.1 -355.9)" d="m85.81 495.5h80.86" clip-rule="evenodd" fill="none" stroke="#000" stroke-linecap="round" stroke-linejoin="round" stroke-miterlimit="1.5" stroke-width="9.143"/>
  <path transform="matrix(1.048 0 0 1.048 332.1 -355.9)" d="m126.2 417.8v15.13" clip-rule="evenodd" fill="none" stroke="#000" stroke-linecap="round" stroke-linejoin="round" stroke-miterlimit="1.5" stroke-width="9.143"/>
  <path transform="matrix(1.048 0 0 1.023 332.1 -317.1)" d="m126.2 417.8v50.6" clip-rule="evenodd" fill="none" stroke="#000" stroke-linecap="round" stroke-linejoin="round" stroke-miterlimit="1.5" stroke-width="9.254"/>
  <path transform="matrix(1.048 0 0 1.048 332.1 -338.1)" d="m96.81 458.5h57.86" clip-rule="evenodd" fill="none" stroke="#000" stroke-linecap="round" stroke-linejoin="round" stroke-miterlimit="1.5" stroke-width="9.143"/>
  <path transform="matrix(1.048 0 0 1.048 332.1 -358)" d="m96.81 458.5h57.86" clip-rule="evenodd" fill="none" stroke="#000" stroke-linecap="round" stroke-linejoin="round" stroke-miterlimit="1.5" stroke-width="9.143"/>
  <path transform="matrix(1.048 0 0 1.048 332.1 -355.9)" d="m86.08 449.5v-12.11c0-2.457 1.992-4.449 4.449-4.45 13.9-6e-3 56.39-0.024 70.3-0.029 1.183-1e-3 2.318 0.47 3.153 1.307 0.836 0.838 1.303 1.974 1.299 3.157-0.015 5.013-0.038 12.45-0.038 12.45" clip-rule="evenodd" fill="none" stroke="#000" stroke-linecap="round" stroke-linejoin="round" stroke-miterlimit="1.5" stroke-width="9.143"/>
 </g>
 <g id="line" transform="matrix(1.087 0 0 1.087 -3.13 -3.172)">
  <rect transform="matrix(.92 0 0 .92 2.879 2.918)" x="12" y="12" width="48" height="48" fill="none" stroke="#000" stroke-linecap="round" stroke-linejoin="round" stroke-width="2"/>
 </g>
</svg>
