<?xml version='1.0' encoding='utf-8'?>
<svg xmlns="http://www.w3.org/2000/svg" id="emoji" version="1.1" viewBox="0 0 72 72">
  <g id="grid">
    <path d="M68,4V68H4V4H68m4-4H0V72H72V0Z" fill="#b3b3b3" />
    <path d="m12.92 10.96h46.15a1.923 1.923 0 0 1 1.923 1.923v46.15a1.923 1.923 0 0 1-1.923 1.923h-46.15a1.923 1.923 0 0 1-1.923-1.923v-46.15a1.923 1.923 0 0 1 1.923-1.923z" fill="none" stroke="#00a5ff" stroke-miterlimit="10" stroke-width=".1" />
    <rect fill="none" height="64" rx="2.254" stroke="#00a5ff" stroke-miterlimit="10" stroke-width=".1" width="40" x="16" y="4" />
    <rect fill="none" height="64" rx="2.254" stroke="#00a5ff" stroke-miterlimit="10" stroke-width=".1" transform="translate(72) rotate(90)" width="40" x="16" y="4" />
    <circle cx="36" cy="36" fill="none" r="29" stroke="#00a5ff" stroke-miterlimit="10" stroke-width=".1" />
  </g>
  <g id="color" style="clip-rule:evenodd;fill-rule:evenodd;stroke-miterlimit:10" transform="matrix(.2612 0 0 .2621 -91.39 -3.483)">
    <rect height="191.7" style="fill:#e5604d;stroke-width:0" width="191.7" x="391.7" y="54.17" />
  </g>
  <g id="line" style="clip-rule:evenodd;fill-rule:evenodd;stroke-miterlimit:10" transform="matrix(1.001 0 0 1.001 -2.087 -2.3)">
    <rect height="191.7" style="clip-rule:evenodd;fill:none;stroke-linecap:round;stroke-linejoin:round;stroke-miterlimit:1.5;stroke-width:7.643;stroke:#000" transform="matrix(.2609 0 0 .2618 -89.19 -1.182)" width="191.7" x="391.7" y="54.17" />
    <path d="m825 512v34.22c0 5.038-4.073 9.129-9.112 9.152-6.763 0.03-14.82 0.065-14.82 0.065" style="clip-rule:evenodd;fill:none;stroke-linecap:round;stroke-linejoin:round;stroke-miterlimit:1.5;stroke-width:7.766;stroke:#fff" transform="matrix(.2572 0 0 .2572 -174.2 -86.8)" />
    <path d="m760.8 551.3c13.23-7.029 28.63-25.12 28.63-25.12" style="clip-rule:evenodd;fill:none;stroke-linecap:round;stroke-linejoin:round;stroke-miterlimit:1.5;stroke-width:7.766;stroke:#fff" transform="matrix(.2572 0 0 .2572 -174.2 -86.8)" />
    <path d="m858.1 525.9s29.87 23.68 29.15 26.36" style="clip-rule:evenodd;fill:none;stroke-linecap:round;stroke-linejoin:round;stroke-miterlimit:1.5;stroke-width:7.766;stroke:#fff" transform="matrix(.2572 0 0 .2572 -174.2 -86.8)" />
    <path d="m778.4 491.4 95.62-0.019" style="clip-rule:evenodd;fill:none;stroke-linecap:round;stroke-linejoin:round;stroke-miterlimit:1.5;stroke-width:7.766;stroke:#fff" transform="matrix(.2572 0 0 .2572 -174.2 -86.8)" />
    <path d="m759.4 490 131.6-0.019" style="clip-rule:evenodd;fill:none;stroke-linecap:round;stroke-linejoin:round;stroke-miterlimit:1.5;stroke-width:7.766;stroke:#fff" transform="matrix(.2572 0 0 .2572 -174.2 -81.14)" />
    <path d="m789.4 437.6 27.09 23.62" style="clip-rule:evenodd;fill:none;stroke-linecap:round;stroke-linejoin:round;stroke-miterlimit:1.5;stroke-width:7.766;stroke:#fff" transform="matrix(.2572 0 0 .2572 -174.2 -86.8)" />
    <path d="m755.7 474c17.7-11.48 34.07-39.85 34.07-39.85" style="clip-rule:evenodd;fill:none;stroke-linecap:round;stroke-linejoin:round;stroke-miterlimit:1.5;stroke-width:7.766;stroke:#fff" transform="matrix(.2572 0 0 .2572 -174.2 -86.8)" />
    <path d="m790.4 415.3 0.087 60.92" style="clip-rule:evenodd;fill:none;stroke-linecap:round;stroke-linejoin:round;stroke-miterlimit:1.5;stroke-width:7.766;stroke:#fff" transform="matrix(.2572 0 0 .2572 -174.2 -86.8)" />
    <path d="m758.3 433.8h59.32" style="clip-rule:evenodd;fill:none;stroke-linecap:round;stroke-linejoin:round;stroke-miterlimit:1.5;stroke-width:7.766;stroke:#fff" transform="matrix(.2572 0 0 .2572 -174.2 -86.8)" />
    <path d="m790.4 415 0.187 61.79" style="clip-rule:evenodd;fill:none;stroke-linecap:round;stroke-linejoin:round;stroke-miterlimit:1.5;stroke-width:7.766;stroke:#fff" transform="matrix(.2572 0 0 .2572 -174.2 -86.8)" />
    <path d="m790.5 435.1s19.36 28.16 32.39 36.35" style="clip-rule:evenodd;fill:none;stroke-linecap:round;stroke-linejoin:round;stroke-miterlimit:1.5;stroke-width:7.766;stroke:#fff" transform="matrix(.2572 0 0 .2572 -156 -86.8)" />
    <path d="m751.6 472.9c21.08-15.01 37.08-39.16 37.08-39.16" style="clip-rule:evenodd;fill:none;stroke-linecap:round;stroke-linejoin:round;stroke-miterlimit:1.5;stroke-width:7.766;stroke:#fff" transform="matrix(.2572 0 0 .2572 -156 -86.8)" />
    <path d="m789.8 415.3 0.088 60.92" style="clip-rule:evenodd;fill:none;stroke-linecap:round;stroke-linejoin:round;stroke-miterlimit:1.5;stroke-width:7.766;stroke:#fff" transform="matrix(.2572 0 0 .2572 -156 -86.8)" />
    <path d="m758.3 433.8h65.32" style="clip-rule:evenodd;fill:none;stroke-linecap:round;stroke-linejoin:round;stroke-miterlimit:1.5;stroke-width:7.766;stroke:#fff" transform="matrix(.2572 0 0 .2572 -156 -86.8)" />
  </g>
</svg>
