<?xml version='1.0' encoding='utf-8'?>
<svg xmlns="http://www.w3.org/2000/svg" id="emoji" version="1.1" viewBox="0 0 72 72">
  <g id="grid">
    <path d="M68,4V68H4V4H68m4-4H0V72H72V0Z" fill="#b3b3b3" />
    <path d="m12.92 10.96h46.15a1.923 1.923 0 0 1 1.923 1.923v46.15a1.923 1.923 0 0 1-1.923 1.923h-46.15a1.923 1.923 0 0 1-1.923-1.923v-46.15a1.923 1.923 0 0 1 1.923-1.923z" fill="none" stroke="#00a5ff" stroke-miterlimit="10" stroke-width=".1" />
    <rect fill="none" height="64" rx="2.254" stroke="#00a5ff" stroke-miterlimit="10" stroke-width=".1" width="40" x="16" y="4" />
    <rect fill="none" height="64" rx="2.254" stroke="#00a5ff" stroke-miterlimit="10" stroke-width=".1" transform="translate(72) rotate(90)" width="40" x="16" y="4" />
    <circle cx="36" cy="36" fill="none" r="29" stroke="#00a5ff" stroke-miterlimit="10" stroke-width=".1" />
  </g>
  <g id="color" style="clip-rule:evenodd;fill-rule:evenodd;stroke-miterlimit:10" transform="matrix(.2609 0 0 .2609 -91.17 -3.172)">
    <rect height="191.7" style="fill:#b29ac6;stroke-width:0" width="191.7" x="391.7" y="54.17" />
  </g>
  <g id="line" style="clip-rule:evenodd;fill-rule:evenodd;stroke-miterlimit:10" transform="matrix(.3511 0 0 .3352 -253.6 -223.1)">
    <rect height="191.7" style="clip-rule:evenodd;fill:none;stroke-linecap:round;stroke-linejoin:round;stroke-miterlimit:1.5;stroke-width:7.667;stroke:#000" transform="matrix(.7429 0 0 .7783 462.5 656.2)" width="191.7" x="391.7" y="54.17" />
    <path d="m874.9 755.8s-9.866 13.47-19.23 23.37" style="clip-rule:evenodd;fill:none;stroke-linecap:round;stroke-linejoin:round;stroke-miterlimit:1.5;stroke-width:7.286;stroke:#000" transform="matrix(.7818 0 0 .819 179.8 101.9)" />
    <path d="m774.1 755.4s11.14 15.89 13.94 21.61" style="clip-rule:evenodd;fill:none;stroke-linecap:round;stroke-linejoin:round;stroke-miterlimit:1.5;stroke-width:7.286;stroke:#000" transform="matrix(.7818 0 0 .819 179.8 101.9)" />
    <path d="m774.1 755.4s10.25 16.39 12.98 23.82" style="clip-rule:evenodd;fill:none;stroke-linecap:round;stroke-linejoin:round;stroke-miterlimit:1.5;stroke-width:7.286;stroke:#000" transform="matrix(.7818 0 0 .819 210.7 100.1)" />
    <path d="m763.1 802.2s0.104-11.32 0.165-17.86c0.023-2.504 2.053-4.526 4.557-4.54 19.3-0.102 94.74-0.503 114.2-0.606 1.22-7e-3 2.391 0.473 3.256 1.333s1.351 2.03 1.351 3.249v18.42" style="clip-rule:evenodd;fill:none;stroke-linecap:round;stroke-linejoin:round;stroke-miterlimit:1.5;stroke-width:7.286;stroke:#000" transform="matrix(.7818 0 0 .819 179.8 101.9)" />
    <path d="m814.6 851.3 6.954-22.31" style="clip-rule:evenodd;fill:none;stroke-linejoin:round;stroke-miterlimit:1.5;stroke-width:7.286;stroke:#000" transform="matrix(.7818 0 0 .819 179.8 101.9)" />
    <path d="m866 802.3v24.37c0 1.281-1.067 2.321-2.382 2.321h-76.81c-1.314 0-2.382-1.04-2.382-2.321v-24.37c0-1.281 1.068-2.321 2.382-2.321h76.81c1.315 0 2.382 1.04 2.382 2.321z" style="clip-rule:evenodd;fill-opacity:0;stroke-linecap:round;stroke-linejoin:round;stroke-miterlimit:1.5;stroke-width:7.169;stroke:#000" transform="matrix(.7843 0 0 .8433 177.3 81.74)" />
    <path d="m866 802.3v24.37c0 1.281-0.992 2.321-2.215 2.321h-77.14c-1.223 0-2.216-1.04-2.216-2.321v-24.37c0-1.281 0.993-2.321 2.216-2.321h77.14c1.223 0 2.215 1.04 2.215 2.321z" style="clip-rule:evenodd;fill-opacity:0;stroke-linecap:round;stroke-linejoin:round;stroke-miterlimit:1.5;stroke-width:6.045;stroke:#000" transform="matrix(.9645 0 0 .9645 29.31 27.78)" />
  </g>
</svg>
