<?xml version='1.0' encoding='utf-8'?>
<svg xmlns="http://www.w3.org/2000/svg" id="emoji" version="1.1" viewBox="0 0 72 72">
  <g id="grid">
    <path d="M68,4V68H4V4H68m4-4H0V72H72V0Z" fill="#b3b3b3" />
    <path d="m12.92 10.96h46.15a1.923 1.923 0 0 1 1.923 1.923v46.15a1.923 1.923 0 0 1-1.923 1.923h-46.15a1.923 1.923 0 0 1-1.923-1.923v-46.15a1.923 1.923 0 0 1 1.923-1.923z" fill="none" stroke="#00a5ff" stroke-miterlimit="10" stroke-width=".1" />
    <rect fill="none" height="64" rx="2.254" stroke="#00a5ff" stroke-miterlimit="10" stroke-width=".1" width="40" x="16" y="4" />
    <rect fill="none" height="64" rx="2.254" stroke="#00a5ff" stroke-miterlimit="10" stroke-width=".1" transform="translate(72) rotate(90)" width="40" x="16" y="4" />
    <circle cx="36" cy="36" fill="none" r="29" stroke="#00a5ff" stroke-miterlimit="10" stroke-width=".1" />
  </g>
  <g id="color" style="clip-rule:evenodd;fill-rule:evenodd;stroke-miterlimit:10" transform="matrix(.3013 0 0 .3013 -523.2 -12.34)">
    <circle cx="1856" cy="160.6" r="83.22" style="fill:#e5604d;stroke-width:0" />
  </g>
  <g id="line" style="clip-rule:evenodd;fill-rule:evenodd;stroke-miterlimit:10" transform="matrix(1.09 0 0 1.09 -3.216 -3.216)">
    <circle cx="1856" cy="160.6" r="83.22" style="clip-rule:evenodd;fill:none;stroke-linecap:round;stroke-linejoin:round;stroke-miterlimit:1.5;stroke-width:6.637;stroke:#000" transform="matrix(.2764 0 0 .2764 -477 -8.372)" />
    <path d="m1827 111.7 62.11 0.04" style="clip-rule:evenodd;fill:none;stroke-linecap:round;stroke-linejoin:round;stroke-miterlimit:1.5;stroke-width:8.107;stroke:#fff" transform="matrix(.234 0 0 .2188 -393.8 3.51)" />
    <path d="m1885 104.1v27.75c0 1.459-1.28 2.643-2.857 2.643h-48.58c-1.578 0-2.858-1.184-2.858-2.643v-27.75c0-1.458 1.28-2.643 2.858-2.643h48.58c1.577 0 2.857 1.185 2.857 2.643z" style="clip-rule:evenodd;fill-opacity:0;stroke-linecap:round;stroke-linejoin:round;stroke-miterlimit:1.5;stroke-width:6.805;stroke:#fff" transform="matrix(.2681 0 0 .271 -457.1 -4.03)" />
    <path d="m1817 150.2h80.11" style="clip-rule:evenodd;fill:none;stroke-linecap:round;stroke-linejoin:round;stroke-miterlimit:1.5;stroke-width:8.107;stroke:#fff" transform="matrix(.234 0 0 .2188 -393.8 3.51)" />
    <path d="m1814 150.2h87.11" style="clip-rule:evenodd;fill:none;stroke-linecap:round;stroke-linejoin:round;stroke-miterlimit:1.5;stroke-width:8.107;stroke:#fff" transform="matrix(.234 0 0 .2188 -393.8 8.104)" />
    <path d="m1845 200c-2.488-4.329-15.44-16.09-15.44-16.09" style="clip-rule:evenodd;fill:none;stroke-linecap:round;stroke-linejoin:round;stroke-miterlimit:1.5;stroke-width:8.107;stroke:#fff" transform="matrix(.234 0 0 .2188 -393.8 3.51)" />
    <path d="m1856 213.2h12.1c2.298 0 4.501-0.914 6.124-2.541s2.532-3.832 2.527-6.13c-0.039-16.88-0.121-52.52-0.121-52.52" style="clip-rule:evenodd;fill:none;stroke-linecap:round;stroke-linejoin:round;stroke-miterlimit:1.5;stroke-width:8.107;stroke:#fff" transform="matrix(.234 0 0 .2188 -393.8 3.51)" />
    <path d="m1795 213.2-0.146-79.45" style="clip-rule:evenodd;fill:none;stroke-linecap:round;stroke-linejoin:round;stroke-miterlimit:1.5;stroke-width:8.107;stroke:#fff" transform="matrix(.234 0 0 .2188 -393.8 3.51)" />
    <path d="m1772 155c27.3-23.26 36.08-40.52 36.08-40.52" style="clip-rule:evenodd;fill:none;stroke-linecap:round;stroke-linejoin:round;stroke-miterlimit:1.5;stroke-width:8.107;stroke:#fff" transform="matrix(.234 0 0 .2188 -393.8 3.51)" />
    <path d="m1773 115.8c17.49-12.88 30.78-27.92 30.78-27.92" style="clip-rule:evenodd;fill:none;stroke-linecap:round;stroke-linejoin:round;stroke-miterlimit:1.5;stroke-width:8.107;stroke:#fff" transform="matrix(.234 0 0 .2188 -393.8 3.51)" />
  </g>
</svg>
