<?xml version='1.0' encoding='utf-8'?>
<svg xmlns="http://www.w3.org/2000/svg" id="emoji" version="1.1" viewBox="0 0 72 72">
  <g id="grid">
    <path d="M68,4V68H4V4H68m4-4H0V72H72V0Z" fill="#b3b3b3" />
    <path d="m12.92 10.96h46.15a1.923 1.923 0 0 1 1.923 1.923v46.15a1.923 1.923 0 0 1-1.923 1.923h-46.15a1.923 1.923 0 0 1-1.923-1.923v-46.15a1.923 1.923 0 0 1 1.923-1.923z" fill="none" stroke="#00a5ff" stroke-miterlimit="10" stroke-width=".1" />
    <rect fill="none" height="64" rx="2.254" stroke="#00a5ff" stroke-miterlimit="10" stroke-width=".1" width="40" x="16" y="4" />
    <rect fill="none" height="64" rx="2.254" stroke="#00a5ff" stroke-miterlimit="10" stroke-width=".1" transform="translate(72) rotate(90)" width="40" x="16" y="4" />
    <circle cx="36" cy="36" fill="none" r="29" stroke="#00a5ff" stroke-miterlimit="10" stroke-width=".1" />
  </g>
  <g id="color" style="clip-rule:evenodd;fill-rule:evenodd;stroke-miterlimit:10" transform="matrix(.2979 0 0 .2979 -516.7 -11.66)">
    <circle cx="1856" cy="160.6" r="83.22" style="fill:#e5604d;stroke-width:0" />
  </g>
  <g id="line" style="clip-rule:evenodd;fill-rule:evenodd;stroke-miterlimit:10" transform="matrix(.2511 0 0 .2511 -255.1 -87.02)">
    <circle cx="1856" cy="160.6" r="83.22" style="clip-rule:evenodd;fill:none;stroke-linecap:round;stroke-linejoin:round;stroke-miterlimit:1.5;stroke-width:6.714;stroke:#000" transform="matrix(1.186 0 0 1.186 -1042 300.2)" />
    <path d="m1205 439.5s-0.809 85.76-1.018 107.8c-0.027 2.838-2.343 5.12-5.181 5.103-7.926-0.045-22.24-0.128-22.24-0.128" style="clip-rule:evenodd;fill:none;stroke-linecap:round;stroke-linejoin:round;stroke-miterlimit:1.5;stroke-width:8.405;stroke:#fff" transform="matrix(.938 0 0 .9576 69.98 24.13)" />
    <path d="m1115 498.2v-24.28c0-1.367 0.542-2.677 1.509-3.643 0.966-0.966 2.276-1.509 3.643-1.509h43.31c1.369 0 2.681 0.545 3.648 1.514 0.966 0.969 1.507 2.283 1.504 3.652-0.026 9.038-0.077 27.61-0.102 36.62-0.01 2.833-2.302 5.128-5.135 5.138-10.21 0.034-32.99 0.11-43.24 0.144-1.371 5e-3 -2.688-0.537-3.658-1.506s-1.514-2.284-1.511-3.655c0.013-6.981 0.035-18.55 0.035-18.55" style="clip-rule:evenodd;fill:none;stroke-linecap:round;stroke-linejoin:round;stroke-miterlimit:1.5;stroke-width:8.405;stroke:#fff" transform="matrix(.938 0 0 .9576 69.98 24.13)" />
    <path d="m1101 437.9h121.9" style="clip-rule:evenodd;fill:none;stroke-linecap:round;stroke-linejoin:round;stroke-miterlimit:1.5;stroke-width:8.405;stroke:#fff" transform="matrix(.938 0 0 .9576 69.98 24.13)" />
  </g>
</svg>
