<svg id="emoji" version="1.1" viewBox="0 0 72 72" xmlns="http://www.w3.org/2000/svg">
 <g id="grid">
  <path d="m68 4v64h-64v-64h64m4-4h-72v72h72z" fill="#b3b3b3"/>
  <path d="m12.92 10.96h46.15a1.923 1.923 0 0 1 1.923 1.923v46.15a1.923 1.923 0 0 1-1.923 1.923h-46.15a1.923 1.923 0 0 1-1.923-1.923v-46.15a1.923 1.923 0 0 1 1.923-1.923z" fill="none" stroke="#00a5ff" stroke-miterlimit="10" stroke-width=".1"/>
  <rect x="16" y="4" width="40" height="64" rx="2.254" fill="none" stroke="#00a5ff" stroke-miterlimit="10" stroke-width=".1"/>
  <rect transform="rotate(90,36,36)" x="16" y="4" width="40" height="64" rx="2.254" fill="none" stroke="#00a5ff" stroke-miterlimit="10" stroke-width=".1"/>
  <circle cx="36" cy="36" r="29" fill="none" stroke="#00a5ff" stroke-miterlimit="10" stroke-width=".1"/>
 </g>
 <g id="color" transform="matrix(.3013 0 0 .3013 -523.2 -12.34)">
  <circle transform="matrix(10.11 0 0 10.11 1891 130.3)" cx="-3.505" cy="2.983" r="9.189" fill="#92d3f5" stroke-width=".3282"/>
  <path transform="matrix(0 -10.11 -10.11 0 1891 130.3)" d="m-6.5 0.5h7l-6 3 6 3h-7" fill="none" stroke="#000" stroke-linecap="round" stroke-linejoin="round" stroke-width="2px"/>
 </g>
 <g id="line" transform="matrix(1.09,0,0,1.09,-3.216,-3.216)">
  <circle transform="matrix(2.795 0 0 2.795 45.78 27.64)" cx="-3.505" cy="2.983" r="9.189" fill="none" stroke="#000" stroke-linejoin="round" stroke-width=".6564"/>
 </g>
</svg>
