<?xml version='1.0' encoding='utf-8'?>
<svg xmlns="http://www.w3.org/2000/svg" id="emoji" version="1.1" viewBox="0 0 72 72">
  <g id="grid">
    <path d="M68,4V68H4V4H68m4-4H0V72H72V0Z" fill="#b3b3b3" />
    <path d="m12.92 10.96h46.15a1.923 1.923 0 0 1 1.923 1.923v46.15a1.923 1.923 0 0 1-1.923 1.923h-46.15a1.923 1.923 0 0 1-1.923-1.923v-46.15a1.923 1.923 0 0 1 1.923-1.923z" fill="none" stroke="#00a5ff" stroke-miterlimit="10" stroke-width=".1" />
    <rect fill="none" height="64" rx="2.254" stroke="#00a5ff" stroke-miterlimit="10" stroke-width=".1" width="40" x="16" y="4" />
    <rect fill="none" height="64" rx="2.254" stroke="#00a5ff" stroke-miterlimit="10" stroke-width=".1" transform="translate(72) rotate(90)" width="40" x="16" y="4" />
    <circle cx="36" cy="36" fill="none" r="29" stroke="#00a5ff" stroke-miterlimit="10" stroke-width=".1" />
  </g>
  <g style="clip-rule:evenodd;fill-rule:evenodd;stroke-miterlimit:10" transform="matrix(.3004 0 0 .3004 -521.6 -12.27)">
    <circle cx="1856" cy="160.6" r="83.22" style="fill:#e5604d;stroke-width:0" />
  </g>
  <g style="clip-rule:evenodd;fill-rule:evenodd;stroke-miterlimit:10" transform="matrix(1.087 0 0 1.087 -3.13 -3.172)">
    <circle cx="1856" cy="160.6" r="83.22" style="clip-rule:evenodd;fill:none;stroke-linecap:round;stroke-linejoin:round;stroke-miterlimit:1.5;stroke-width:6.657;stroke:#000" transform="matrix(.2764 0 0 .2764 -477 -8.372)" />
    <path d="m494.1 820.7s3.805 48.35-27.75 62.88" style="clip-rule:evenodd;fill:none;stroke-linecap:round;stroke-linejoin:round;stroke-miterlimit:1.5;stroke-width:8.024;stroke:#fff" transform="matrix(.2293 0 0 .2293 -75.52 -153)" />
    <path d="m517.7 818.9s0.172 45.83 0.225 59.85c8e-3 2.227 1.816 4.027 4.042 4.027h17.75c2.104 0 3.955-1.389 4.542-3.409 1.179-4.156 2.882-11.3 2.241-17.02" style="clip-rule:evenodd;fill:none;stroke-linecap:round;stroke-linejoin:round;stroke-miterlimit:1.5;stroke-width:8.024;stroke:#fff" transform="matrix(.2293 0 0 .2293 -75.52 -153)" />
    <path d="m446.1 883.6 0.18-62.88" style="clip-rule:evenodd;fill:none;stroke-linecap:round;stroke-linejoin:round;stroke-miterlimit:1.5;stroke-width:8.024;stroke:#fff" transform="matrix(.2293 0 0 .2293 -75.52 -153)" />
    <path d="m538.8 775.3v37.34c0 1.963-1.661 3.557-3.707 3.557h-52.6c-2.046 0-3.708-1.594-3.708-3.557v-37.34c0-1.962 1.662-3.556 3.708-3.556h52.6c2.046 0 3.707 1.594 3.707 3.556z" style="clip-rule:evenodd;fill-opacity:0;stroke-linecap:round;stroke-linejoin:round;stroke-miterlimit:1.5;stroke-width:7.922;stroke:#fff" transform="matrix(.2275 0 0 .2371 -74.67 -158.9)" />
    <path d="m447.5 818.9 22.25 20.74" style="clip-rule:evenodd;fill:none;stroke-linecap:round;stroke-linejoin:round;stroke-miterlimit:1.5;stroke-width:8.024;stroke:#fff" transform="matrix(.2293 0 0 .2293 -75.52 -153)" />
    <path d="m423.5 788.5 42.8 0.094s-11.79 30.73-46.95 55.34" style="clip-rule:evenodd;fill:none;stroke-linecap:round;stroke-linejoin:round;stroke-miterlimit:1.5;stroke-width:8.024;stroke:#fff" transform="matrix(.2293 0 0 .2293 -75.52 -153)" />
    <path d="m446.2 762.6 0.084 24.18" style="clip-rule:evenodd;fill:none;stroke-linecap:round;stroke-linejoin:round;stroke-miterlimit:1.5;stroke-width:8.024;stroke:#fff" transform="matrix(.2293 0 0 .2293 -75.52 -153)" />
  </g>
</svg>
