<svg id="emoji" version="1.1" viewBox="0 0 72 72" xmlns="http://www.w3.org/2000/svg">
 <g id="grid">
  <path d="M68,4V68H4V4H68m4-4H0V72H72V0Z" fill="#b3b3b3"/>
  <path d="m12.92 10.96h46.15a1.923 1.923 0 0 1 1.923 1.923v46.15a1.923 1.923 0 0 1-1.923 1.923h-46.15a1.923 1.923 0 0 1-1.923-1.923v-46.15a1.923 1.923 0 0 1 1.923-1.923z" fill="none" stroke="#00a5ff" stroke-miterlimit="10" stroke-width=".1"/>
  <rect x="16" y="4" width="40" height="64" rx="2.254" fill="none" stroke="#00a5ff" stroke-miterlimit="10" stroke-width=".1"/>
  <rect transform="translate(72) rotate(90)" x="16" y="4" width="40" height="64" rx="2.254" fill="none" stroke="#00a5ff" stroke-miterlimit="10" stroke-width=".1"/>
  <circle cx="36" cy="36" r="29" fill="none" stroke="#00a5ff" stroke-miterlimit="10" stroke-width=".1"/>
 </g>
 <g id="color">
  <circle cx="36" cy="36" r="26" fill="#fff"/>
  <path d="m18.8 28.48 7.57-5.675v27.36" clip-rule="evenodd" fill="none" stroke="#000" stroke-linecap="round" stroke-linejoin="round" stroke-miterlimit="10" stroke-width="7.816px"/>
  <path d="m37.84 43.28c0 3.787 3.068 6.855 6.855 6.855h0.9927c3.787 0 6.859-3.068 6.859-6.855s-3.072-6.855-6.859-6.855h-0.9927c-3.787 0-6.855 3.068-6.855 6.855z" clip-rule="evenodd" fill="none" stroke="#000" stroke-linecap="round" stroke-linejoin="round" stroke-miterlimit="10" stroke-width="7.816px"/>
  <path d="m37.84 29.56c0 3.787 3.068 6.855 6.855 6.855h0.9927c3.787 0 6.859-3.068 6.859-6.855s-3.072-6.855-6.859-6.855h-0.9927c-3.787 0-6.855 3.068-6.855 6.855z" clip-rule="evenodd" fill="none" stroke="#000" stroke-linecap="round" stroke-linejoin="round" stroke-miterlimit="10" stroke-width="7.816px"/>
  <path d="m36 7c-16.02 0-29 12.98-29 29s12.98 29 29 29 29-12.98 29-29-12.98-29-29-29zm-25.21 29.27c0-5.075 3.417-12.69 6.202-16.49l35.2 35.27c-3.805 2.784-10.93 5.904-16.01 5.904-12.7 0-25.39-11.98-25.39-24.68zm44.87 15.18-35.06-35.13c3.805-2.784 10.77-5.441 15.84-5.441 12.7 0 24.68 12.25 24.68 24.95 0 5.075-2.686 11.81-5.47 15.62z" fill="#ea5a47" stroke-miterlimit="10"/>
 </g>
 <g id="line" fill="none" stroke="#000" stroke-linecap="round" stroke-linejoin="round" stroke-width="2">
  <circle cx="36" cy="36" r="30"/>
  <path d="m55.66 51.44a24.99 24.99 0 0 0-35.06-35.13z"/>
  <path d="m16.99 19.77a24.99 24.99 0 0 0 35.2 35.27z"/>
  <path d="m34.79 30.53c-0.0221-5.956 3.817-10.71 10.43-10.77 6.102-0.05456 10.2 4.614 10.23 9.742 0 2.678-0.9926 5.078-2.823 6.914 1.804 1.817 2.849 4.192 2.849 6.869 0 2.232-0.5899 4.376-1.919 6.03" stroke="#000" stroke-linecap="butt" stroke-width="2"/>
  <path d="m49.43 52.28c-1.371 0.6157-2.849 0.8395-4.834 0.7604-2.348-0.09352-4.332-0.6972-6.464-2.542-1.998-1.729-3.12-4.273-3.183-7.013-0.04347-1.88 0.402-3.289 1.012-4.7" stroke="#000" stroke-linecap="butt" stroke-width="2"/>
  <path d="m49.65 29.58c1e-6 1.108-0.5084 2.247-1.423 3.01-0.8967 0.7483-1.979 0.9353-3.024 0.9353-1.042 0-2.078-0.1353-2.941-0.8303-1.007-0.812-1.514-1.96-1.514-3.071 0-1.113 0.4732-2.336 1.418-3.107 0.796-0.6499 1.537-0.9153 2.999-0.913 1.465 0.0023 1.937 0.1536 2.704 0.6693 1.162 0.7808 1.78 2.086 1.78 3.307z" stroke="#000" stroke-linecap="round" stroke-width="2"/>
  <path d="m44.52 39.56s1.234-0.3563 2.244-0.09122c0.597 0.1566 1.269 0.5649 1.623 0.8913 0.4936 0.4552 0.9968 1.099 1.153 1.748 0.1955 0.8117 0.0277 2.579 0.0277 2.579" stroke="#000" stroke-linecap="round" stroke-width="2"/>
  <path d="m24.01 20.58s1.465-0.7078 2.427-0.6814c0.8068 0.02221 1.594 0.3667 2.088 0.9502 0.5685 0.671 0.7867 1.11 0.7421 2.678-0.02335 0.8224 0.0239 1.44 0.0239 1.44" stroke="#000" stroke-linecap="butt" stroke-width="2"/>
  <path d="m20.8 23.38s-2.145 1.577-3.21 2.377c-0.6758 0.5073-1.159 0.7726-1.527 1.705-0.2986 0.756-0.2417 2.057 0.5142 2.882 0.974 1.063 2.208 1.262 3.105 0.9151 1.545-0.5967 3.836-2.873 3.836-2.873s-0.1205 14.99-0.0612 21.69c0 0-0.05888 1.09 0.6136 1.883 0.5705 0.6721 1.431 1.105 2.202 1.094 0.8008-0.01163 1.531-0.2472 2.071-0.7431 0.9862-0.905 0.9196-2.133 0.9196-2.133l0.0076-18.06" stroke="#000" stroke-linecap="butt" stroke-width="2"/>
 </g>
</svg>
