<svg id="emoji" version="1.1" viewBox="0 0 72 72" xmlns="http://www.w3.org/2000/svg">
 <g id="grid">
  <path d="M68,4V68H4V4H68m4-4H0V72H72V0Z" fill="#b3b3b3"/>
  <path d="m12.92 10.96h46.15a1.923 1.923 0 0 1 1.923 1.923v46.15a1.923 1.923 0 0 1-1.923 1.923h-46.15a1.923 1.923 0 0 1-1.923-1.923v-46.15a1.923 1.923 0 0 1 1.923-1.923z" fill="none" stroke="#00a5ff" stroke-miterlimit="10" stroke-width=".1"/>
  <rect x="16" y="4" width="40" height="64" rx="2.254" fill="none" stroke="#00a5ff" stroke-miterlimit="10" stroke-width=".1"/>
  <rect transform="translate(72) rotate(90)" x="16" y="4" width="40" height="64" rx="2.254" fill="none" stroke="#00a5ff" stroke-miterlimit="10" stroke-width=".1"/>
  <circle cx="36" cy="36" r="29" fill="none" stroke="#00a5ff" stroke-miterlimit="10" stroke-width=".1"/>
 </g>
 <g id="color">
  <path d="m38.45 57.15 22.23-38.5c1.091-1.89-0.2728-4.252-2.455-4.252h-44.45c-2.182 0-3.546 2.362-2.455 4.252l22.23 38.5c1.091 1.89 3.819 1.89 4.91 0z" fill="#d22f27"/>
 </g>
 <g id="line">
  <path d="m38.45 57.15 22.23-38.5c1.091-1.89-0.2728-4.252-2.455-4.252h-44.45c-2.182 0-3.546 2.362-2.455 4.252l22.23 38.5c1.091 1.89 3.819 1.89 4.91 0z" fill="none" stroke="#000" stroke-miterlimit="10" stroke-width="2"/>
 </g>
</svg>
