<?xml version="1.0" encoding="UTF-8" standalone="no"?>
<svg
   id="emoji"
   viewBox="0 0 72 72"
   version="1.1"
   sodipodi:docname="0032-FE0F-20E3.svg"
   inkscape:version="1.4.3 (0d15f75, 2025-12-25)"
   inkscape:dataloss="true"
   xmlns:inkscape="http://www.inkscape.org/namespaces/inkscape"
   xmlns:sodipodi="http://sodipodi.sourceforge.net/DTD/sodipodi-0.dtd"
   xmlns="http://www.w3.org/2000/svg"
   xmlns:svg="http://www.w3.org/2000/svg">
  <defs
     id="defs5" />
  <sodipodi:namedview
     id="namedview5"
     pagecolor="#ffffff"
     bordercolor="#000000"
     borderopacity="0.25"
     inkscape:showpageshadow="2"
     inkscape:pageopacity="0.0"
     inkscape:pagecheckerboard="0"
     inkscape:deskcolor="#d1d1d1"
     inkscape:zoom="11.208333"
     inkscape:cx="36"
     inkscape:cy="36"
     inkscape:window-width="1920"
     inkscape:window-height="1009"
     inkscape:window-x="-8"
     inkscape:window-y="-8"
     inkscape:window-maximized="1"
     inkscape:current-layer="emoji" />
  <g
     id="grid"
     inkscape:label="grid">
    <path
       fill="#b3b3b3"
       d="M 68,4 V 68 H 4 V 4 H 68 M 72,0 H 0 v 72 h 72 z"
       id="path1" />
    <path
       fill="none"
       stroke="#00a5ff"
       stroke-miterlimit="10"
       stroke-width="0.1"
       d="M 12.923,10.9583 H 59.0769 A 1.9231,1.9231 0 0 1 61,12.8814 v 46.1538 a 1.9231,1.9231 0 0 1 -1.9231,1.9231 H 12.9231 A 1.9231,1.9231 0 0 1 11,59.0352 V 12.8813 a 1.923,1.923 0 0 1 1.923,-1.923 z"
       id="path2" />
    <rect
       x="16"
       y="4"
       rx="2.2537"
       ry="2.2537"
       width="40"
       height="64"
       fill="none"
       stroke="#00a5ff"
       stroke-miterlimit="10"
       stroke-width="0.1"
       id="rect2" />
    <rect
       x="16"
       y="4"
       rx="2.2537"
       ry="2.2537"
       width="40"
       height="64"
       transform="rotate(90,36,36)"
       fill="none"
       stroke="#00a5ff"
       stroke-miterlimit="10"
       stroke-width="0.1"
       id="rect3" />
    <circle
       cx="36"
       cy="36"
       r="29"
       fill="none"
       stroke="#00a5ff"
       stroke-miterlimit="10"
       stroke-width="0.1"
       id="circle3" />
  </g>
  <g
     id="color"
     style="display:inline">
    <rect
       x="12"
       y="12"
       width="48"
       height="47.830002"
       fill="#d22f27"
       id="rect4-3"
       style="fill:#92d3f5;fill-opacity:1" />
    <path
       d="m 30.944789,31.680568 c 0.482234,-2.348793 2.56232,-4.119385 5.055064,-4.119385 1.425111,0 2.713469,0.578201 3.646748,1.511481 1.451502,1.453901 1.319547,3.865073 -0.04318,5.402945 l -8.761792,9.879808 h 10.316459"
       style="clip-rule:evenodd;fill:none;fill-rule:evenodd;stroke:#000000;stroke-width:4.79835px;stroke-linecap:round;stroke-linejoin:round;stroke-miterlimit:10"
       id="path18" />
  </g>
  <g
     id="line"
     style="display:inline">
    <rect
       x="12"
       y="12"
       width="48"
       height="48"
       fill="none"
       stroke="#000000"
       stroke-linecap="round"
       stroke-linejoin="round"
       stroke-width="2"
       id="rect5-4" />
  </g>
</svg>
