<svg id="emoji" version="1.1" viewBox="0 0 72 72" xmlns="http://www.w3.org/2000/svg">
 <g id="grid">
  <path d="m68 4v64h-64v-64h64m4-4h-72v72h72z" fill="#b3b3b3"/>
  <path d="m12.92 10.96h46.15a1.923 1.923 0 0 1 1.923 1.923v46.15a1.923 1.923 0 0 1-1.923 1.923h-46.15a1.923 1.923 0 0 1-1.923-1.923v-46.15a1.923 1.923 0 0 1 1.923-1.923z" fill="none" stroke="#00a5ff" stroke-miterlimit="10" stroke-width=".1"/>
  <rect x="16" y="4" width="40" height="64" rx="2.254" ry="2.254" fill="none" stroke="#00a5ff" stroke-miterlimit="10" stroke-width=".1"/>
  <rect transform="rotate(90,36,36)" x="16" y="4" width="40" height="64" rx="2.254" ry="2.254" fill="none" stroke="#00a5ff" stroke-miterlimit="10" stroke-width=".1"/>
  <circle cx="36" cy="36" r="29" fill="none" stroke="#00a5ff" stroke-miterlimit="10" stroke-width=".1"/>
 </g>
 <g id="color">
  <rect x="12" y="12" width="48" height="47.83" fill="#92d3f5"/>
 </g>
 <g id="line" fill="none" stroke="#000" stroke-linecap="round" stroke-linejoin="round">
  <path transform="matrix(2.415,0,0,2.415,36,35.28)" d="m0 3.763c0.923 0 1.672-0.749 1.672-1.671v-0.42c0-0.923-0.749-1.672-1.672-1.672s-1.671 0.749-1.671 1.672v0.42c0 0.922 0.748 1.671 1.671 1.671z" clip-rule="evenodd" stroke-miterlimit="10" stroke-width="2px"/>
  <path transform="matrix(-.9845 2.205 2.205 .9845 38.17 36.37)" d="m-3.132-2.031h4.45" clip-rule="evenodd" stroke-miterlimit="10" stroke-width="2px"/>
  <rect x="12" y="12" width="48" height="48" stroke-width="2"/>
 </g>
</svg>
