<svg id="emoji" version="1.1" viewBox="0 0 72 72" xmlns="http://www.w3.org/2000/svg">
 <g id="grid">
  <path d="m68 4v64h-64v-64h64m4-4h-72v72h72z" fill="#b3b3b3"/>
  <path d="m12.92 11h46.15a1.923 1.923 0 0 1 1.923 1.923v46.15a1.923 1.923 0 0 1-1.923 1.923h-46.15a1.923 1.923 0 0 1-1.923-1.923v-46.15a1.923 1.923 0 0 1 1.923-1.923z" fill="none" stroke="#00a5ff" stroke-miterlimit="10" stroke-width=".1"/>
  <rect x="16" y="4" width="40" height="64" rx="2.254" fill="none" stroke="#00a5ff" stroke-miterlimit="10" stroke-width=".1"/>
  <rect transform="rotate(90,36,36)" x="16" y="4" width="40" height="64" rx="2.254" fill="none" stroke="#00a5ff" stroke-miterlimit="10" stroke-width=".1"/>
  <circle cx="36" cy="36" r="29" fill="none" stroke="#00a5ff" stroke-miterlimit="10" stroke-width=".1"/>
 </g>
 <g id="color">
  <rect x="12" y="12" width="48" height="47.83" fill="#92d3f5"/>
 </g>
 <g id="line" clip-rule="evenodd" fill="none" stroke="#000" stroke-linecap="round" stroke-linejoin="round">
  <path d="m53.21 42.88c-1.057 0.9374-2.45 1.508-3.978 1.508-3.309 0-5.994-2.683-5.994-5.994v-4.795 4.795-4.795c0-3.311 2.685-5.994 5.994-5.994 1.527 0 2.92 0.5706 3.978 1.508" stroke-miterlimit="10" stroke-width="4.795px"/>
  <path d="m37.49 27.61-4.795 16.78-4.797-16.78-4.795 16.78-4.795-16.78" stroke-miterlimit="10" stroke-width="4.795px"/>
  <rect x="12" y="12" width="48" height="48" fill="none" stroke="#000" stroke-linecap="round" stroke-linejoin="round" stroke-width="2"/>
 </g>
</svg>
